<svg width="18" height="18" viewBox="0 0 18 18" fill="none" xmlns="http://www.w3.org/2000/svg">
<g clip-path="url(#clip0_196_5876)">
<g filter="url(#filter0_d_196_5876)">
<path fill-rule="evenodd" clip-rule="evenodd" d="M3.30754 13.3481C3.41988 13.4608 3.50596 13.597 3.55965 13.7468C3.61334 13.8967 3.63332 14.0565 3.61816 14.215C3.5421 14.9483 3.39789 15.673 3.18741 16.3795C4.6972 16.03 5.61931 15.6252 6.03816 15.4131C6.27572 15.2927 6.54931 15.2642 6.80658 15.333C7.54409 15.5296 8.30421 15.6286 9.06748 15.6274C13.3923 15.6274 16.6435 12.5894 16.6435 9.13363C16.6435 5.67897 13.3923 2.6399 9.06748 2.6399C4.74266 2.6399 1.49147 5.67897 1.49147 9.13363C1.49147 10.7224 2.15924 12.1965 3.30754 13.3481ZM2.77398 17.5744C2.51755 17.6252 2.26029 17.6718 2.00231 17.714C1.78585 17.7486 1.62134 17.5235 1.70684 17.3222C1.80294 17.0956 1.89102 16.8656 1.97092 16.6328L1.97417 16.622C2.24257 15.8427 2.4612 14.9466 2.54129 14.1121C1.21332 12.7809 0.40918 11.0385 0.40918 9.13363C0.40918 4.94951 4.28593 1.55762 9.06748 1.55762C13.849 1.55762 17.7258 4.94951 17.7258 9.13363C17.7258 13.3177 13.849 16.7096 9.06748 16.7096C8.20993 16.7108 7.35593 16.5995 6.52735 16.3785C5.96456 16.6631 4.75348 17.1815 2.77398 17.5744Z" fill="black"/>
</g>
<g filter="url(#filter1_d_196_5876)">
<path fill-rule="evenodd" clip-rule="evenodd" d="M4.73828 6.42786C4.73828 6.28434 4.79529 6.1467 4.89678 6.04522C4.99826 5.94373 5.1359 5.88672 5.27942 5.88672H12.8554C12.999 5.88672 13.1366 5.94373 13.2381 6.04522C13.3396 6.1467 13.3966 6.28434 13.3966 6.42786C13.3966 6.57138 13.3396 6.70902 13.2381 6.81051C13.1366 6.91199 12.999 6.96901 12.8554 6.96901H5.27942C5.1359 6.96901 4.99826 6.91199 4.89678 6.81051C4.79529 6.70902 4.73828 6.57138 4.73828 6.42786ZM4.73828 9.13358C4.73828 8.99006 4.79529 8.85242 4.89678 8.75093C4.99826 8.64945 5.1359 8.59244 5.27942 8.59244H12.8554C12.999 8.59244 13.1366 8.64945 13.2381 8.75093C13.3396 8.85242 13.3966 8.99006 13.3966 9.13358C13.3966 9.2771 13.3396 9.41474 13.2381 9.51623C13.1366 9.61771 12.999 9.67472 12.8554 9.67472H5.27942C5.1359 9.67472 4.99826 9.61771 4.89678 9.51623C4.79529 9.41474 4.73828 9.2771 4.73828 9.13358ZM4.73828 11.8393C4.73828 11.6958 4.79529 11.5581 4.89678 11.4567C4.99826 11.3552 5.1359 11.2982 5.27942 11.2982H9.60857C9.75209 11.2982 9.88974 11.3552 9.99122 11.4567C10.0927 11.5581 10.1497 11.6958 10.1497 11.8393C10.1497 11.9828 10.0927 12.1205 9.99122 12.2219C9.88974 12.3234 9.75209 12.3804 9.60857 12.3804H5.27942C5.1359 12.3804 4.99826 12.3234 4.89678 12.2219C4.79529 12.1205 4.73828 11.9828 4.73828 11.8393Z" fill="black"/>
</g>
</g>
<defs>
<filter id="filter0_d_196_5876" x="-1.7262" y="1.55762" width="21.5872" height="20.4309" filterUnits="userSpaceOnUse" color-interpolation-filters="sRGB">
<feFlood flood-opacity="0" result="BackgroundImageFix"/>
<feColorMatrix in="SourceAlpha" type="matrix" values="0 0 0 0 0 0 0 0 0 0 0 0 0 0 0 0 0 0 127 0" result="hardAlpha"/>
<feOffset dy="2.13538"/>
<feGaussianBlur stdDeviation="1.06769"/>
<feComposite in2="hardAlpha" operator="out"/>
<feColorMatrix type="matrix" values="0 0 0 0 0 0 0 0 0 0 0 0 0 0 0 0 0 0 0.25 0"/>
<feBlend mode="normal" in2="BackgroundImageFix" result="effect1_dropShadow_196_5876"/>
<feBlend mode="normal" in="SourceGraphic" in2="effect1_dropShadow_196_5876" result="shape"/>
</filter>
<filter id="filter1_d_196_5876" x="2.6029" y="5.88672" width="12.929" height="10.7644" filterUnits="userSpaceOnUse" color-interpolation-filters="sRGB">
<feFlood flood-opacity="0" result="BackgroundImageFix"/>
<feColorMatrix in="SourceAlpha" type="matrix" values="0 0 0 0 0 0 0 0 0 0 0 0 0 0 0 0 0 0 127 0" result="hardAlpha"/>
<feOffset dy="2.13538"/>
<feGaussianBlur stdDeviation="1.06769"/>
<feComposite in2="hardAlpha" operator="out"/>
<feColorMatrix type="matrix" values="0 0 0 0 0 0 0 0 0 0 0 0 0 0 0 0 0 0 0.25 0"/>
<feBlend mode="normal" in2="BackgroundImageFix" result="effect1_dropShadow_196_5876"/>
<feBlend mode="normal" in="SourceGraphic" in2="effect1_dropShadow_196_5876" result="shape"/>
</filter>
<clipPath id="clip0_196_5876">
<rect width="17.3166" height="17.3166" fill="white" transform="translate(0.40918 0.475098)"/>
</clipPath>
</defs>
</svg>
