<svg width="18" height="18" viewBox="0 0 18 18" fill="none" xmlns="http://www.w3.org/2000/svg">
<g clip-path="url(#clip0_196_5870)">
<g filter="url(#filter0_d_196_5870)">
<path fill-rule="evenodd" clip-rule="evenodd" d="M0.40918 8.89414C0.40918 6.59781 1.32139 4.39554 2.94514 2.7718C4.56888 1.14805 6.77115 0.23584 9.06748 0.23584C11.3638 0.23584 13.5661 1.14805 15.1898 2.7718C16.8136 4.39554 17.7258 6.59781 17.7258 8.89414C17.7258 11.1905 16.8136 13.3927 15.1898 15.0165C13.5661 16.6402 11.3638 17.5524 9.06748 17.5524C6.77115 17.5524 4.56888 16.6402 2.94514 15.0165C1.32139 13.3927 0.40918 11.1905 0.40918 8.89414ZM8.52633 1.40146C7.8012 1.62225 7.08148 2.28894 6.48406 3.40911C6.32929 3.69916 6.18535 4.01519 6.05655 4.35286C6.81957 4.52278 7.64968 4.63101 8.52633 4.66348V1.40146ZM5.00782 4.06605C4.56259 3.923 4.1291 3.7457 3.71124 3.53573C4.41627 2.83086 5.25332 2.27184 6.17452 1.89066C5.9317 2.20849 5.71559 2.54587 5.5284 2.89935C5.32944 3.27662 5.15588 3.66675 5.0089 4.06714L5.00782 4.06605ZM4.20693 8.35299H1.50987C1.61064 6.9133 2.12264 5.53281 2.98502 4.37559C3.4937 4.65482 4.0619 4.89725 4.6788 5.09747C4.39818 6.1612 4.23951 7.25339 4.20584 8.35299H4.20693ZM5.72213 5.38644C6.59662 5.58883 7.54145 5.71221 8.52633 5.74576V8.35299H5.2903C5.32818 7.28478 5.48078 6.2815 5.72213 5.38644ZM9.60862 5.74468V8.35299H12.8447C12.8125 7.35107 12.6676 6.35596 12.4128 5.38644C11.5383 5.58883 10.5935 5.71221 9.60862 5.74576V5.74468ZM5.2903 9.43528H8.52633V12.0425C7.54145 12.075 6.59662 12.1994 5.72213 12.4018C5.46697 11.4324 5.32175 10.4372 5.28921 9.43528H5.2903ZM9.60862 9.43528V12.0425C10.5935 12.075 11.5383 12.1994 12.4128 12.4018C12.6542 11.5068 12.8068 10.5035 12.8457 9.43528H9.60862ZM6.05655 13.4354C6.86869 13.2573 7.69537 13.1537 8.52633 13.1259V16.3879C7.8012 16.1671 7.08148 15.5004 6.48406 14.3803C6.32231 14.0747 6.17954 13.7596 6.05655 13.4365V13.4354ZM6.17561 15.8987C5.93234 15.5806 5.71586 15.2428 5.5284 14.8889C5.32906 14.5117 5.15515 14.1216 5.00782 13.7211C4.5626 13.8642 4.12911 14.0415 3.71124 14.2515C4.41608 14.9571 5.25314 15.5169 6.17452 15.8987H6.17561ZM4.6788 12.6908C4.09287 12.8779 3.52579 13.1196 2.98502 13.4127C2.12298 12.2554 1.61135 10.8749 1.51095 9.43528H4.20584C4.23914 10.5349 4.39782 11.6272 4.6788 12.6908ZM11.9604 15.8987C12.8814 15.5171 13.718 14.9577 14.4226 14.2525C14.0051 14.0426 13.572 13.8653 13.1271 13.7222C12.9798 14.1223 12.8058 14.512 12.6066 14.8889C12.4195 15.2428 12.2034 15.5806 11.9604 15.8987ZM9.60862 13.1248C10.4853 13.1573 11.3154 13.2655 12.0784 13.4354C11.9485 13.7731 11.8057 14.0891 11.6509 14.3792C11.0535 15.4993 10.3327 16.1649 9.60862 16.3868V13.1259V13.1248ZM13.4562 12.6908C14.0731 12.891 14.6413 13.1335 15.1499 13.4127C16.012 12.2554 16.5236 10.8749 16.624 9.43528H13.9291C13.8958 10.5349 13.7371 11.6272 13.4562 12.6908ZM16.624 8.35299H13.9291C13.8958 7.25336 13.7371 6.16112 13.4562 5.09747C14.042 4.91013 14.6091 4.66845 15.1499 4.37559C16.012 5.53291 16.5236 6.9134 16.624 8.35299ZM12.6066 2.89935C12.7981 3.26083 12.9735 3.65046 13.1282 4.06605C13.5727 3.92292 14.0055 3.74561 14.4226 3.53573C13.7179 2.83097 12.8813 2.27197 11.9604 1.89066C12.1964 2.19694 12.4128 2.53678 12.6066 2.89935ZM12.0784 4.35286C11.3154 4.52278 10.4842 4.63101 9.60862 4.66348V1.40146C10.3338 1.62225 11.0535 2.28894 11.6509 3.40911C11.8057 3.69916 11.9496 4.01519 12.0784 4.35286Z" fill="black"/>
</g>
</g>
<defs>
<filter id="filter0_d_196_5870" x="-1.7262" y="0.23584" width="21.5872" height="21.5872" filterUnits="userSpaceOnUse" color-interpolation-filters="sRGB">
<feFlood flood-opacity="0" result="BackgroundImageFix"/>
<feColorMatrix in="SourceAlpha" type="matrix" values="0 0 0 0 0 0 0 0 0 0 0 0 0 0 0 0 0 0 127 0" result="hardAlpha"/>
<feOffset dy="2.13538"/>
<feGaussianBlur stdDeviation="1.06769"/>
<feComposite in2="hardAlpha" operator="out"/>
<feColorMatrix type="matrix" values="0 0 0 0 0 0 0 0 0 0 0 0 0 0 0 0 0 0 0.25 0"/>
<feBlend mode="normal" in2="BackgroundImageFix" result="effect1_dropShadow_196_5870"/>
<feBlend mode="normal" in="SourceGraphic" in2="effect1_dropShadow_196_5870" result="shape"/>
</filter>
<clipPath id="clip0_196_5870">
<rect width="17.3166" height="17.3166" fill="white" transform="translate(0.40918 0.23584)"/>
</clipPath>
</defs>
</svg>
