<svg width="18" height="18" viewBox="0 0 18 18" fill="none" xmlns="http://www.w3.org/2000/svg">
<g clip-path="url(#clip0_196_5867)">
<g filter="url(#filter0_d_196_5867)">
<path fill-rule="evenodd" clip-rule="evenodd" d="M8.68396 1.35674C8.73423 1.30634 8.79395 1.26636 8.85969 1.23908C8.92544 1.2118 8.99592 1.19775 9.06709 1.19775C9.13827 1.19775 9.20875 1.2118 9.2745 1.23908C9.34024 1.26636 9.39996 1.30634 9.45022 1.35674L15.9439 7.85046C15.9942 7.9008 16.034 7.96056 16.0611 8.0263C16.0882 8.09204 16.1021 8.16248 16.102 8.23359V15.8096C16.102 15.9531 16.0449 16.0908 15.9435 16.1922C15.842 16.2937 15.7043 16.3507 15.5608 16.3507H10.6905C10.547 16.3507 10.4094 16.2937 10.3079 16.1922C10.2064 16.0908 10.1494 15.9531 10.1494 15.8096V11.4804H7.98481V15.8096C7.98481 15.9531 7.92779 16.0908 7.82631 16.1922C7.72483 16.2937 7.58718 16.3507 7.44366 16.3507H2.57337C2.42985 16.3507 2.29221 16.2937 2.19072 16.1922C2.08924 16.0908 2.03223 15.9531 2.03223 15.8096V8.23359C2.0321 8.16248 2.04599 8.09204 2.0731 8.0263C2.10022 7.96056 2.14002 7.9008 2.19024 7.85046L8.68396 1.35674ZM3.11451 8.45762V15.2685H6.90252V10.9393C6.90252 10.7958 6.95953 10.6581 7.06102 10.5567C7.1625 10.4552 7.30014 10.3982 7.44366 10.3982H10.6905C10.834 10.3982 10.9717 10.4552 11.0732 10.5567C11.1747 10.6581 11.2317 10.7958 11.2317 10.9393V15.2685H15.0197V8.45762L9.06709 2.50504L3.11451 8.45762Z" fill="white"/>
</g>
<path fill-rule="evenodd" clip-rule="evenodd" d="M14.479 2.82239V6.6104L12.3145 4.44582V2.82239C12.3145 2.67887 12.3715 2.54123 12.4729 2.43975C12.5744 2.33826 12.7121 2.28125 12.8556 2.28125H13.9379C14.0814 2.28125 14.219 2.33826 14.3205 2.43975C14.422 2.54123 14.479 2.67887 14.479 2.82239Z" fill="white"/>
</g>
<defs>
<filter id="filter0_d_196_5867" x="-0.103153" y="1.19775" width="18.3401" height="19.4236" filterUnits="userSpaceOnUse" color-interpolation-filters="sRGB">
<feFlood flood-opacity="0" result="BackgroundImageFix"/>
<feColorMatrix in="SourceAlpha" type="matrix" values="0 0 0 0 0 0 0 0 0 0 0 0 0 0 0 0 0 0 127 0" result="hardAlpha"/>
<feOffset dy="2.13538"/>
<feGaussianBlur stdDeviation="1.06769"/>
<feComposite in2="hardAlpha" operator="out"/>
<feColorMatrix type="matrix" values="0 0 0 0 0 0 0 0 0 0 0 0 0 0 0 0 0 0 0.25 0"/>
<feBlend mode="normal" in2="BackgroundImageFix" result="effect1_dropShadow_196_5867"/>
<feBlend mode="normal" in="SourceGraphic" in2="effect1_dropShadow_196_5867" result="shape"/>
</filter>
<clipPath id="clip0_196_5867">
<rect width="17.3166" height="17.3166" fill="white" transform="translate(0.40918 0.116699)"/>
</clipPath>
</defs>
</svg>
