<svg width="18" height="18" viewBox="0 0 18 18" fill="none" xmlns="http://www.w3.org/2000/svg">
<g clip-path="url(#clip0_196_5873)">
<g filter="url(#filter0_d_196_5873)">
<path d="M3.65595 0.35498H14.4797C15.0538 0.35498 15.6044 0.583051 16.0104 0.989018C16.4163 1.39499 16.6444 1.9456 16.6444 2.51972V15.5082C16.6444 16.0823 16.4163 16.6329 16.0104 17.0389C15.6044 17.4448 15.0538 17.6729 14.4797 17.6729H3.65595C3.08183 17.6729 2.53122 17.4448 2.12525 17.0389C1.71928 16.6329 1.49121 16.0823 1.49121 15.5082V14.4258H2.57358V15.5082C2.57358 15.7952 2.68762 16.0705 2.8906 16.2735C3.09358 16.4765 3.36889 16.5905 3.65595 16.5905H14.4797C14.7667 16.5905 15.042 16.4765 15.245 16.2735C15.448 16.0705 15.562 15.7952 15.562 15.5082V2.51972C15.562 2.23266 15.448 1.95735 15.245 1.75437C15.042 1.55139 14.7667 1.43735 14.4797 1.43735H3.65595C3.36889 1.43735 3.09358 1.55139 2.8906 1.75437C2.68762 1.95735 2.57358 2.23266 2.57358 2.51972V3.60209H1.49121V2.51972C1.49121 1.9456 1.71928 1.39499 2.12525 0.989018C2.53122 0.583051 3.08183 0.35498 3.65595 0.35498V0.35498Z" fill="black"/>
</g>
<g filter="url(#filter1_d_196_5873)">
<path d="M1.49155 5.76694V5.22576C1.49155 5.08222 1.54857 4.94457 1.65006 4.84308C1.75155 4.74159 1.8892 4.68457 2.03274 4.68457C2.17627 4.68457 2.31392 4.74159 2.41541 4.84308C2.5169 4.94457 2.57392 5.08222 2.57392 5.22576V5.76694H3.11511C3.25864 5.76694 3.39629 5.82396 3.49778 5.92545C3.59927 6.02694 3.65629 6.16459 3.65629 6.30813C3.65629 6.45166 3.59927 6.58931 3.49778 6.6908C3.39629 6.79229 3.25864 6.84931 3.11511 6.84931H0.950365C0.806834 6.84931 0.669181 6.79229 0.567689 6.6908C0.466197 6.58931 0.40918 6.45166 0.40918 6.30813C0.40918 6.16459 0.466197 6.02694 0.567689 5.92545C0.669181 5.82396 0.806834 5.76694 0.950365 5.76694H1.49155ZM1.49155 9.01405V8.47287C1.49155 8.32934 1.54857 8.19168 1.65006 8.09019C1.75155 7.9887 1.8892 7.93168 2.03274 7.93168C2.17627 7.93168 2.31392 7.9887 2.41541 8.09019C2.5169 8.19168 2.57392 8.32934 2.57392 8.47287V9.01405H3.11511C3.25864 9.01405 3.39629 9.07107 3.49778 9.17256C3.59927 9.27405 3.65629 9.41171 3.65629 9.55524C3.65629 9.69877 3.59927 9.83642 3.49778 9.93791C3.39629 10.0394 3.25864 10.0964 3.11511 10.0964H0.950365C0.806834 10.0964 0.669181 10.0394 0.567689 9.93791C0.466197 9.83642 0.40918 9.69877 0.40918 9.55524C0.40918 9.41171 0.466197 9.27405 0.567689 9.17256C0.669181 9.07107 0.806834 9.01405 0.950365 9.01405H1.49155ZM1.49155 12.2612V11.72C1.49155 11.5764 1.54857 11.4388 1.65006 11.3373C1.75155 11.2358 1.8892 11.1788 2.03274 11.1788C2.17627 11.1788 2.31392 11.2358 2.41541 11.3373C2.5169 11.4388 2.57392 11.5764 2.57392 11.72V12.2612H3.11511C3.25864 12.2612 3.39629 12.3182 3.49778 12.4197C3.59927 12.5212 3.65629 12.6588 3.65629 12.8023C3.65629 12.9459 3.59927 13.0835 3.49778 13.185C3.39629 13.2865 3.25864 13.3435 3.11511 13.3435H0.950365C0.806834 13.3435 0.669181 13.2865 0.567689 13.185C0.466197 13.0835 0.40918 12.9459 0.40918 12.8023C0.40918 12.6588 0.466197 12.5212 0.567689 12.4197C0.669181 12.3182 0.806834 12.2612 0.950365 12.2612H1.49155Z" fill="black"/>
</g>
<g filter="url(#filter2_d_196_5873)">
<path fill-rule="evenodd" clip-rule="evenodd" d="M5.82129 12.8022C5.82129 12.6587 5.87831 12.521 5.9798 12.4195C6.08129 12.318 6.21894 12.261 6.36247 12.261H8.52722C8.67075 12.261 8.8084 12.318 8.90989 12.4195C9.01138 12.521 9.0684 12.6587 9.0684 12.8022C9.0684 12.9457 9.01138 13.0834 8.90989 13.1849C8.8084 13.2864 8.67075 13.3434 8.52722 13.3434H6.36247C6.21894 13.3434 6.08129 13.2864 5.9798 13.1849C5.87831 13.0834 5.82129 12.9457 5.82129 12.8022ZM5.82129 10.6375C5.82129 10.4939 5.87831 10.3563 5.9798 10.2548C6.08129 10.1533 6.21894 10.0963 6.36247 10.0963H11.7743C11.9179 10.0963 12.0555 10.1533 12.157 10.2548C12.2585 10.3563 12.3155 10.4939 12.3155 10.6375C12.3155 10.781 12.2585 10.9186 12.157 11.0201C12.0555 11.1216 11.9179 11.1786 11.7743 11.1786H6.36247C6.21894 11.1786 6.08129 11.1216 5.9798 11.0201C5.87831 10.9186 5.82129 10.781 5.82129 10.6375ZM7.59529 6.08284L9.03485 7.04182L11.0416 5.03403C11.0817 4.99374 11.1336 4.96714 11.1897 4.95801C11.2459 4.94887 11.3035 4.95767 11.3544 4.98316L12.3155 5.4962V7.93153C12.3155 8.07506 12.2585 8.21272 12.157 8.31421C12.0555 8.4157 11.9179 8.47272 11.7743 8.47272H6.36247C6.21894 8.47272 6.08129 8.4157 5.9798 8.31421C5.87831 8.21272 5.82129 8.07506 5.82129 7.93153V7.39035C5.82129 7.39035 7.48814 6.01141 7.59529 6.08284ZM7.71544 5.22561C7.93073 5.22561 8.13721 5.14008 8.28945 4.98784C8.44169 4.8356 8.52722 4.62913 8.52722 4.41383C8.52722 4.19853 8.44169 3.99205 8.28945 3.83981C8.13721 3.68758 7.93073 3.60205 7.71544 3.60205C7.50014 3.60205 7.29366 3.68758 7.14142 3.83981C6.98919 3.99205 6.90366 4.19853 6.90366 4.41383C6.90366 4.62913 6.98919 4.8356 7.14142 4.98784C7.29366 5.14008 7.50014 5.22561 7.71544 5.22561Z" fill="black"/>
</g>
</g>
<defs>
<filter id="filter0_d_196_5873" x="-0.644169" y="0.35498" width="19.4241" height="21.5886" filterUnits="userSpaceOnUse" color-interpolation-filters="sRGB">
<feFlood flood-opacity="0" result="BackgroundImageFix"/>
<feColorMatrix in="SourceAlpha" type="matrix" values="0 0 0 0 0 0 0 0 0 0 0 0 0 0 0 0 0 0 127 0" result="hardAlpha"/>
<feOffset dy="2.13538"/>
<feGaussianBlur stdDeviation="1.06769"/>
<feComposite in2="hardAlpha" operator="out"/>
<feColorMatrix type="matrix" values="0 0 0 0 0 0 0 0 0 0 0 0 0 0 0 0 0 0 0.25 0"/>
<feBlend mode="normal" in2="BackgroundImageFix" result="effect1_dropShadow_196_5873"/>
<feBlend mode="normal" in="SourceGraphic" in2="effect1_dropShadow_196_5873" result="shape"/>
</filter>
<filter id="filter1_d_196_5873" x="-1.7262" y="4.68457" width="7.51783" height="12.9299" filterUnits="userSpaceOnUse" color-interpolation-filters="sRGB">
<feFlood flood-opacity="0" result="BackgroundImageFix"/>
<feColorMatrix in="SourceAlpha" type="matrix" values="0 0 0 0 0 0 0 0 0 0 0 0 0 0 0 0 0 0 127 0" result="hardAlpha"/>
<feOffset dy="2.13538"/>
<feGaussianBlur stdDeviation="1.06769"/>
<feComposite in2="hardAlpha" operator="out"/>
<feColorMatrix type="matrix" values="0 0 0 0 0 0 0 0 0 0 0 0 0 0 0 0 0 0 0.25 0"/>
<feBlend mode="normal" in2="BackgroundImageFix" result="effect1_dropShadow_196_5873"/>
<feBlend mode="normal" in="SourceGraphic" in2="effect1_dropShadow_196_5873" result="shape"/>
</filter>
<filter id="filter2_d_196_5873" x="3.68591" y="3.60205" width="10.7649" height="14.012" filterUnits="userSpaceOnUse" color-interpolation-filters="sRGB">
<feFlood flood-opacity="0" result="BackgroundImageFix"/>
<feColorMatrix in="SourceAlpha" type="matrix" values="0 0 0 0 0 0 0 0 0 0 0 0 0 0 0 0 0 0 127 0" result="hardAlpha"/>
<feOffset dy="2.13538"/>
<feGaussianBlur stdDeviation="1.06769"/>
<feComposite in2="hardAlpha" operator="out"/>
<feColorMatrix type="matrix" values="0 0 0 0 0 0 0 0 0 0 0 0 0 0 0 0 0 0 0.25 0"/>
<feBlend mode="normal" in2="BackgroundImageFix" result="effect1_dropShadow_196_5873"/>
<feBlend mode="normal" in="SourceGraphic" in2="effect1_dropShadow_196_5873" result="shape"/>
</filter>
<clipPath id="clip0_196_5873">
<rect width="17.3179" height="17.3179" fill="white" transform="translate(0.40918 0.35498)"/>
</clipPath>
</defs>
</svg>
