<svg width="23" height="22" viewBox="0 0 23 22" fill="none" xmlns="http://www.w3.org/2000/svg">
<g clip-path="url(#clip0_196_5801)">
<path fill-rule="evenodd" clip-rule="evenodd" d="M9.4375 16.5C10.4306 16.5 11.414 16.3044 12.3315 15.9243C13.2491 15.5443 14.0828 14.9872 14.785 14.285C15.4872 13.5828 16.0443 12.7491 16.4243 11.8315C16.8044 10.914 17 9.93062 17 8.9375C17 7.94438 16.8044 6.96098 16.4243 6.04346C16.0443 5.12593 15.4872 4.29225 14.785 3.59C14.0828 2.88776 13.2491 2.33071 12.3315 1.95066C11.414 1.57061 10.4306 1.375 9.4375 1.375C7.4318 1.375 5.50825 2.17176 4.09001 3.59001C2.67176 5.00825 1.875 6.9318 1.875 8.9375C1.875 10.9432 2.67176 12.8668 4.09001 14.285C5.50825 15.7032 7.4318 16.5 9.4375 16.5ZM18.375 8.9375C18.375 11.3079 17.4334 13.5812 15.7573 15.2573C14.0812 16.9334 11.8079 17.875 9.4375 17.875C7.06713 17.875 4.79384 16.9334 3.11773 15.2573C1.44163 13.5812 0.5 11.3079 0.5 8.9375C0.5 6.56713 1.44163 4.29384 3.11773 2.61773C4.79384 0.941627 7.06713 0 9.4375 0C11.8079 0 14.0812 0.941627 15.7573 2.61773C17.4334 4.29384 18.375 6.56713 18.375 8.9375Z" fill="black"/>
<path d="M14.7227 16.1453C14.7639 16.2003 14.8079 16.2526 14.8574 16.3034L20.1512 21.5972C20.409 21.8552 20.7587 22.0002 21.1235 22.0003C21.4882 22.0005 21.8381 21.8557 22.0961 21.5979C22.3541 21.34 22.4991 20.9903 22.4992 20.6255C22.4994 20.2608 22.3546 19.9109 22.0968 19.6529L16.803 14.3592C16.7539 14.3094 16.701 14.2635 16.6449 14.2217C16.1055 14.9571 15.4573 15.6062 14.7227 16.1467V16.1453Z" fill="black"/>
</g>
<defs>
<clipPath id="clip0_196_5801">
<rect width="22" height="22" fill="white" transform="translate(0.5)"/>
</clipPath>
</defs>
</svg>
